<svg width="18" height="18" viewBox="0 0 18 18" fill="none" xmlns="http://www.w3.org/2000/svg">
<path opacity="0.4" fill-rule="evenodd" clip-rule="evenodd" d="M9.87146 6.12854C9.59567 6.04495 9.30309 6 9 6C7.34315 6 6 7.34315 6 9C6 9.30309 6.04495 9.59567 6.12854 9.87146L7 9C7 7.89543 7.89543 7 9 7L9.87146 6.12854ZM9 11C10.1046 11 11 10.1046 11 9L11.8715 8.12854C11.9551 8.40432 12 8.69691 12 9C12 10.6569 10.6569 12 9 12C8.69691 12 8.40432 11.9551 8.12854 11.8715L9 11Z" fill="#313131"/>
<path opacity="0.4" fill-rule="evenodd" clip-rule="evenodd" d="M11.5748 4.42524C10.7519 4.14765 9.88911 4 9 4C5.76884 4 2.88566 5.95003 1 8.99996C1.78464 10.2691 2.742 11.3477 3.82528 12.1747L4.53916 11.4608C3.67027 10.8185 2.87802 9.98924 2.19436 8.99996C3.93484 6.48142 6.37919 5 9 5C9.60179 5 10.1943 5.07811 10.7711 5.22894L11.5748 4.42524ZM7.22895 12.7711C7.80574 12.9219 8.39822 13 9 13C11.6208 13 14.0651 11.5185 15.8056 8.99996C15.122 8.0107 14.3297 7.18144 13.4609 6.53913L14.1748 5.82525C15.258 6.65221 16.2154 7.73087 17 8.99996C15.1143 12.0499 12.2312 14 9 14C8.11089 14 7.24813 13.8523 6.42525 13.5747L7.22895 12.7711Z" fill="#313131"/>
<path d="M2.5 15.5L15.5 2.5" stroke="#313131"/>
</svg>
