<svg width="18" height="18" viewBox="0 0 18 18" fill="none" xmlns="http://www.w3.org/2000/svg">
<path fill-rule="evenodd" clip-rule="evenodd" d="M6.99994 2.68896C4.89153 3.23163 3.23163 4.89153 2.68896 6.99994H3.72884C4.21725 5.44491 5.44491 4.21725 6.99994 3.72884V2.68896ZM6.99994 13.271C5.44491 12.7826 4.21725 11.555 3.72884 9.99994H2.68896C3.23163 12.1083 4.89153 13.7682 6.99994 14.3109V13.271ZM9.99994 14.3109V13.271C11.555 12.7826 12.7826 11.555 13.271 9.99994H14.3109C13.7682 12.1083 12.1083 13.7682 9.99994 14.3109ZM9.99994 3.72884V2.68896C12.1083 3.23163 13.7682 4.89153 14.3109 6.99994H13.271C12.7826 5.44491 11.555 4.21725 9.99994 3.72884Z" fill="#313131"/>
<path d="M1 8.5H6M8.5 1V6M11 8.5H16M8.5 11V16" stroke="#313131"/>
<rect x="8" y="8" width="1" height="1" fill="#313131"/>
</svg>
