<svg width="18" height="18" viewBox="0 0 18 18" fill="none" xmlns="http://www.w3.org/2000/svg">
<path d="M10.5021 10.9091V16H11.3871V12.495H11.4343L12.8413 15.9851H13.5025L14.9094 12.5025H14.9567V16H15.8416V10.9091H14.7131L13.2017 14.598H13.142L11.6307 10.9091H10.5021Z" fill="#313131"/>
<path d="M6.5 3.5L12.5 9.5" stroke="#313131"/>
<path d="M1.79289 14.2071C2.18342 14.5976 2.81658 14.5976 3.20711 14.2071L4.5 12.9142L6.28361 12.5448L13.9142 4.91421C14.6953 4.13316 14.6953 2.86683 13.9142 2.08579C13.1332 1.30474 11.8668 1.30474 11.0858 2.08579L3.45518 9.71639L3.08578 11.5L1.79289 12.7929C1.40237 13.1834 1.40237 13.8166 1.79289 14.2071Z" stroke="#313131"/>
<path d="M13.9144 2.08579C13.1333 1.30474 11.867 1.30474 11.0859 2.08579L8.08594 5.08579L10.9144 7.91421L13.9144 4.91421C14.6954 4.13316 14.6954 2.86683 13.9144 2.08579Z" fill="#313131"/>
</svg>
