<svg width="18" height="18" viewBox="0 0 18 18" fill="none" xmlns="http://www.w3.org/2000/svg">
<path d="M7.5 4.5L13.5 10.5" stroke="#313131"/>
<path d="M2.79289 15.2071C3.18342 15.5976 3.81658 15.5976 4.20711 15.2071L5.5 13.9142L7.28361 13.5448L14.9142 5.91421C15.6953 5.13316 15.6953 3.86683 14.9142 3.08579C14.1332 2.30474 12.8668 2.30474 12.0858 3.08579L4.45518 10.7164L4.08578 12.5L2.79289 13.7929C2.40237 14.1834 2.40237 14.8166 2.79289 15.2071Z" stroke="#313131"/>
<path d="M14.9141 3.08579C14.1331 2.30474 12.8667 2.30474 12.0857 3.08579L9.08569 6.08579L11.9141 8.91421L14.9141 5.91421C15.6952 5.13316 15.6952 3.86683 14.9141 3.08579Z" fill="#313131"/>
</svg>
